<?xml version="1.0" encoding="UTF-8"?>
<!DOCTYPE svg PUBLIC "-//W3C//DTD SVG 1.1//EN" "http://www.w3.org/Graphics/SVG/1.1/DTD/svg11.dtd">
<!-- Creator: CorelDRAW -->
<svg xmlns="http://www.w3.org/2000/svg" xml:space="preserve" width="7mm" height="auto"  version="1.1" style="shape-rendering:geometricPrecision; text-rendering:geometricPrecision; image-rendering:optimizeQuality; fill-rule:evenodd; clip-rule:evenodd"
viewBox="0 0 4.08 4.08"
 xmlns:xlink="http://www.w3.org/1999/xlink"
 xmlns:xodm="http://www.corel.com/coreldraw/odm/2003">
 <defs>
  <style type="text/css">
   <![CDATA[
    .fil0 {fill:#373435}
   ]]>
  </style>
 </defs>
 <g id="Layer_x0020_1">
  <metadata id="CorelCorpID_0Corel-Layer"/>
  <path class="fil0" d="M4.08 4.08l-0.86 0 0 -1.48c0,-0.44 -0.19,-0.57 -0.43,-0.57 -0.25,0 -0.5,0.19 -0.5,0.58l0 1.47 -0.86 0 0 -2.72 0.82 0 0 0.38 0.01 0c0.08,-0.17 0.37,-0.45 0.81,-0.45 0.48,0 0.99,0.28 0.99,1.11l0 1.68zm-3.58 -3.1c-0.27,0 -0.49,-0.21 -0.49,-0.49 0,-0.28 0.22,-0.49 0.49,-0.49 0.27,0 0.49,0.21 0.49,0.49 0,0.28 -0.22,0.49 -0.49,0.49zm0.43 3.09l-0.86 0 0 -2.72 0.86 0 0 2.72z"/>
 </g>
</svg>
