<?xml version="1.0" encoding="UTF-8"?>
<!DOCTYPE svg PUBLIC "-//W3C//DTD SVG 1.1//EN" "http://www.w3.org/Graphics/SVG/1.1/DTD/svg11.dtd">
<!-- Creator: CorelDRAW -->
<svg xmlns="http://www.w3.org/2000/svg" xml:space="preserve" width="8mm" height="auto"  version="1.1" style="shape-rendering:geometricPrecision; text-rendering:geometricPrecision; image-rendering:optimizeQuality; fill-rule:evenodd; clip-rule:evenodd"
viewBox="0 0 5.18 5.18"
 xmlns:xlink="http://www.w3.org/1999/xlink"
 xmlns:xodm="http://www.corel.com/coreldraw/odm/2003">
 <defs>
  <style type="text/css">
   <![CDATA[
    .fil0 {fill:#373435;fill-rule:nonzero}
   ]]>
  </style>
 </defs>
 <g id="Layer_x0020_1">
  <metadata id="CorelCorpID_0Corel-Layer"/>
  <g id="_2063330786656">
   <path class="fil0" d="M4.72 3.75c0,0.53 -0.43,0.97 -0.97,0.97l-2.32 0c-0.53,0 -0.97,-0.43 -0.97,-0.97l0 -2.32c0,-0.53 0.44,-0.97 0.97,-0.97l2.32 0c0.53,0 0.97,0.43 0.97,0.97l0 2.32zm-0.97 -3.75l-2.32 0c-0.79,0 -1.43,0.64 -1.43,1.43l0 2.32c0,0.79 0.64,1.43 1.43,1.43l2.32 0c0.79,0 1.43,-0.64 1.43,-1.43l0 -2.32c0,-0.79 -0.64,-1.43 -1.43,-1.43l0 0z"/>
   <path class="fil0" d="M2.59 3.46c-0.48,0 -0.87,-0.39 -0.87,-0.87 0,-0.48 0.39,-0.87 0.87,-0.87 0.48,0 0.87,0.39 0.87,0.87 0,0.48 -0.39,0.87 -0.87,0.87l0 0zm0 -2.21c-0.74,0 -1.33,0.6 -1.33,1.33 0,0.74 0.6,1.33 1.33,1.33 0.74,0 1.33,-0.6 1.33,-1.33 0,-0.74 -0.6,-1.33 -1.33,-1.33l0 0z"/>
   <path class="fil0" d="M3.98 0.87c-0.09,0 -0.18,0.04 -0.24,0.1 -0.06,0.06 -0.1,0.15 -0.1,0.24 0,0.09 0.04,0.18 0.1,0.24 0.06,0.06 0.15,0.1 0.24,0.1 0.09,0 0.18,-0.04 0.24,-0.1 0.06,-0.06 0.1,-0.15 0.1,-0.24 0,-0.09 -0.04,-0.18 -0.1,-0.24 -0.06,-0.06 -0.15,-0.1 -0.24,-0.1l0 0z"/>
  </g>
 </g>
</svg>
