<?xml version="1.0" encoding="UTF-8"?>
<!DOCTYPE svg PUBLIC "-//W3C//DTD SVG 1.1//EN" "http://www.w3.org/Graphics/SVG/1.1/DTD/svg11.dtd">
<!-- Creator: CorelDRAW -->
<svg xmlns="http://www.w3.org/2000/svg" xml:space="preserve" width="8mm" height="auto" version="1.1" style="shape-rendering:geometricPrecision; text-rendering:geometricPrecision; image-rendering:optimizeQuality; fill-rule:evenodd; clip-rule:evenodd"
viewBox="0 0 3.72 4.26"
 xmlns:xlink="http://www.w3.org/1999/xlink"
 xmlns:xodm="http://www.corel.com/coreldraw/odm/2003">
 <defs>
  <style type="text/css">
   <![CDATA[
    .fil0 {fill:#373435;fill-rule:nonzero}
   ]]>
  </style>
 </defs>
 <g id="Layer_x0020_1">
  <metadata id="CorelCorpID_0Corel-Layer"/>
  <path class="fil0" d="M3.72 1c-0.55,0 -1,-0.45 -1,-1l-0.75 0 0 2.9c0,0.34 -0.27,0.61 -0.61,0.61 -0.34,0 -0.61,-0.27 -0.61,-0.61 0,-0.34 0.27,-0.61 0.61,-0.61 0.06,0 0.13,0.01 0.19,0.03l0 -0.76c-0.06,-0.01 -0.13,-0.01 -0.19,-0.01 -0.75,0 -1.36,0.61 -1.36,1.36 0,0.75 0.61,1.36 1.36,1.36 0.75,0 1.36,-0.61 1.36,-1.36l0 -1.53c0.27,0.22 0.62,0.36 1,0.36l0 -0.72z"/>
 </g>
</svg>
