<?xml version="1.0" encoding="UTF-8"?>
<!DOCTYPE svg PUBLIC "-//W3C//DTD SVG 1.1//EN" "http://www.w3.org/Graphics/SVG/1.1/DTD/svg11.dtd">
<!-- Creator: CorelDRAW -->
<svg xmlns="http://www.w3.org/2000/svg" xml:space="preserve" width="8mm" height="auto" version="1.1" style="shape-rendering:geometricPrecision; text-rendering:geometricPrecision; image-rendering:optimizeQuality; fill-rule:evenodd; clip-rule:evenodd"
viewBox="0 0 3.4 3.48"
 xmlns:xlink="http://www.w3.org/1999/xlink"
 xmlns:xodm="http://www.corel.com/coreldraw/odm/2003">
 <defs>
  <style type="text/css">
   <![CDATA[
    .fil0 {fill:#373435;fill-rule:nonzero}
   ]]>
  </style>
 </defs>
 <g id="Layer_x0020_1">
  <metadata id="CorelCorpID_0Corel-Layer"/>
  <g id="_2062203741776">
   <path class="fil0" d="M2.52 3.25l-0.9 -1.31 -0.13 -0.19 -1.05 -1.52 0.45 0 0.85 1.23 0.13 0.19 1.1 1.61 -0.45 0zm0.64 -0.13l-1.14 -1.65 -0.13 -0.19 -0.81 -1.18 -0.07 -0.1 -1 0 0.24 0.35 1.08 1.57 0.13 0.19 0.87 1.26 0.07 0.1 1 0 -0.24 -0.35z"/>
   <polygon class="fil0" points="1.48,1.75 1.61,1.94 1.46,2.12 0.29,3.48 -0,3.48 1.33,1.93 "/>
   <polygon class="fil0" points="3.28,0 2.02,1.47 1.86,1.65 1.73,1.46 1.89,1.28 2.74,0.29 2.99,0 "/>
  </g>
 </g>
</svg>
